<?xml version="1.0" encoding="iso-8859-1"?>
<!-- Generator: Adobe Illustrator 19.0.0, SVG Export Plug-In . SVG Version: 6.00 Build 0)  -->
<svg version="1.1" id="Layer_1" xmlns="http://www.w3.org/2000/svg" xmlns:xlink="http://www.w3.org/1999/xlink" x="0px" y="0px"
	 width="21.664px" height="21.665px" viewBox="0 0 511.444 511.444" style="enable-background:new 0 0 511.444 511.444;" xml:space="preserve">
<g>
	<path style="fill:#5E2A41;" d="M270.94,118.417c-18.047-18.047-18.047-47.405,0-65.452c9.218-9.218,9.252-24.738,0-33.956
		c-4.353-4.342-4.353-11.4,0-15.742c4.342-4.353,11.389-4.353,15.742,0c8.74,8.74,13.549,20.363,13.549,32.721
		c0,12.369-4.81,23.981-13.549,32.732c-9.363,9.363-9.363,24.593,0,33.956c4.342,4.342,4.342,11.389,0,15.742
		c-2.171,2.171-5.021,3.262-7.871,3.262C275.961,121.679,273.111,120.588,270.94,118.417z"/>
	<path style="fill:#5E2A41;" d="M467.476,288.155v25.061c0,41.36-27.9,77.755-67.835,88.487l-44.433,11.946
		c-0.011,0-0.022,0-0.033,0.011l-8.294,60.565c-2.906,21.22-21.253,37.219-42.663,37.219H126.363
		c-21.42,0-39.757-15.999-42.663-37.219l-39.49-288.285c-1.024-7.448,1.225-14.974,6.168-20.641
		c4.943-5.667,12.102-8.918,19.617-8.918h290.578c7.526,0,14.674,3.251,19.617,8.918s7.192,13.193,6.179,20.641l-2.605,19.005
		c17.424-0.2,34.435,5.166,49.064,15.676C454.85,236.43,467.476,261.046,467.476,288.155z M445.209,313.215v-25.061
		c0-19.851-9.241-37.875-25.362-49.454c-11.634-8.35-25.295-12.258-39.156-11.356l-2.26,16.533
		c11.211-1.548,22.5,1.214,31.964,8.005c11.812,8.472,18.604,21.699,18.604,36.272v25.061c0,23.981-16.177,45.09-39.345,51.335
		l-28.813,7.738l-2.383,17.424l35.393-9.519C424.089,372.067,445.209,344.523,445.209,313.215z M406.732,313.215v-25.061
		c0-7.303-3.396-13.939-9.33-18.181c-5.934-4.264-13.649-5.622-22.233-2.305l-11.044,80.672l19.75-5.299
		C397.325,339.423,406.732,327.155,406.732,313.215z M364.304,182.923c0.2-1.481-0.468-2.505-0.891-2.995
		c-0.423-0.479-1.347-1.28-2.839-1.28H69.996c-1.481,0-2.416,0.802-2.839,1.28c-0.412,0.49-1.091,1.514-0.891,2.995l3.997,29.147
		h185.792c6.146,0,11.133,4.988,11.133,11.133s-4.988,11.133-11.133,11.133H73.313l27.922,203.872h228.098L364.304,182.923z
		 M324.814,471.207l1.47-10.732H104.286l1.47,10.732c1.403,10.243,10.265,17.969,20.608,17.969h177.854
		C314.56,489.177,323.411,481.451,324.814,471.207z"/>
</g>
<path style="fill:#FF7124;" d="M445.209,288.155v25.061c0,31.307-21.12,58.85-51.358,66.978l-35.393,9.519l2.383-17.424
	l28.813-7.738c23.168-6.246,39.345-27.354,39.345-51.335v-25.061c0-14.573-6.791-27.8-18.604-36.272
	c-9.463-6.791-20.752-9.552-31.964-8.005l2.26-16.533c13.861-0.902,27.521,3.006,39.156,11.356
	C435.968,250.28,445.209,268.303,445.209,288.155z"/>
<path style="fill:#F2D59F;" d="M363.413,179.929c0.423,0.49,1.091,1.514,0.891,2.995l-34.97,255.286H101.236L73.313,234.336h182.741
	c6.146,0,11.133-4.988,11.133-11.133s-4.988-11.133-11.133-11.133H70.263l-3.997-29.147c-0.2-1.481,0.479-2.505,0.891-2.995
	c0.423-0.479,1.358-1.28,2.839-1.28h290.578C362.066,178.647,362.99,179.449,363.413,179.929z"/>
<path style="fill:#FF7124;" d="M326.283,460.476l-1.47,10.732c-1.403,10.243-10.254,17.969-20.597,17.969H126.363
	c-10.343,0-19.205-7.727-20.608-17.969l-1.47-10.732L326.283,460.476L326.283,460.476z"/>
<g>
	<path style="fill:#5E2A41;" d="M223.156,3.265c18.047,18.047,18.047,47.405,0,65.452c-9.363,9.363-9.363,24.593,0,33.956
		c4.353,4.342,4.353,11.389,0,15.742c-2.171,2.171-5.021,3.262-7.871,3.262s-5.7-1.091-7.871-3.262
		c-18.047-18.047-18.047-47.405,0-65.452c9.363-9.363,9.363-24.593,0-33.956c-4.342-4.342-4.342-11.4,0-15.742
		C211.767-1.088,218.814-1.088,223.156,3.265z"/>
	<path style="fill:#5E2A41;" d="M159.641,3.265c18.036,18.047,18.036,47.405,0,65.452c-9.363,9.363-9.363,24.593,0,33.956
		c4.342,4.342,4.342,11.389,0,15.742c-2.182,2.171-5.032,3.262-7.871,3.262c-2.85,0-5.7-1.091-7.882-3.262
		c-18.036-18.047-18.036-47.405,0-65.452c9.363-9.363,9.363-24.593,0-33.956c-4.342-4.342-4.342-11.4,0-15.742
		C148.24-1.088,155.288-1.088,159.641,3.265z"/>
</g>
<g>
</g>
<g>
</g>
<g>
</g>
<g>
</g>
<g>
</g>
<g>
</g>
<g>
</g>
<g>
</g>
<g>
</g>
<g>
</g>
<g>
</g>
<g>
</g>
<g>
</g>
<g>
</g>
<g>
</g>
</svg>
